<svg height="512" viewBox="0 0 512 512" width="512" xmlns="http://www.w3.org/2000/svg"><g style="stroke:#f54599;stroke-width:20;fill:none;fill-rule:evenodd;stroke-linecap:round;stroke-linejoin:round" transform="translate(112.8995 112.8995)"><path d="m0 223.5111 80.066-80.0661"/><path d="m143.445 80.066 80.066-80.066"/><path d="m63.3789 0 80.0661 80.066"/><path d="m206.824 143.445 80.066 80.0661"/><path d="m286.89 63.379-80.066 80.066"/><path d="m143.445 206.824-80.0661 80.066"/><path d="m223.511 286.89-80.066-80.066"/><path d="m80.066 143.445-80.066-80.066"/><path d="m63.3789 0c-33.5004 3.387-59.9922 29.879-63.3789 63.379"/><path d="m0 223.5111c3.3867 33.5004 29.8786 59.9922 63.3789 63.3789"/><path d="m223.511 286.89c33.5-3.3867 59.992-29.8786 63.379-63.3789"/><path d="m286.89 63.379c-3.387-33.5-29.879-59.992-63.379-63.379"/></g></svg>